<mxfile host="app.diagrams.net" modified="2024-03-28T14:05:02.305Z" agent="Mozilla/5.0 (Windows NT 10.0; Win64; x64) AppleWebKit/537.36 (KHTML, like Gecko) Chrome/123.0.0.0 Safari/537.36" version="24.2.0" etag="4dFNoi4VlaWXUJqBhD37" type="github">
  <diagram name="Page-1" id="FJotgsl9KjwyREheTknL">
    <mxGraphModel>
      <root>
        <mxCell id="0" />
        <mxCell id="1" parent="0" />
      </root>
    </mxGraphModel>
  </diagram>
</mxfile>
